<svg width="40" height="40" viewBox="0 0 40 40" fill="none" xmlns="http://www.w3.org/2000/svg">
<path d="M20 40C31.0457 40 40 31.0457 40 20C40 8.95431 31.0457 0 20 0C8.95431 0 0 8.95431 0 20C0 31.0457 8.95431 40 20 40Z" fill="#FFF8E7"/>
<path d="M14.816 12.043C14.4683 9.76571 15.8386 6.7693 17.1463 4.94056C17.4559 5.92139 17.8231 7.00239 18.111 7.87581C18.7175 6.44936 19.7466 5.08668 21.0129 4.16055C20.9139 4.96298 21.1745 6.62438 21.0539 7.31939C22.0331 6.07857 23.0993 5.45363 24.1438 4.72127C23.9902 7.09965 23.0201 9.49371 22.9739 11.8504L14.816 12.043Z" fill="#BC0055"/>
<path d="M21.2781 35.7047H18.672C13.4598 35.7047 9.24164 31.4851 9.24164 26.271V10.1541H30.7085V26.271C30.7085 31.4851 26.4814 35.7047 21.2781 35.7047Z" fill="#00BC67"/>
<path d="M17.8256 15.489C17.8256 16.831 18.9215 17.9269 20.2634 17.9269C21.6052 17.9269 22.7011 16.831 22.7011 15.489C22.7011 14.1359 21.6052 13.0511 20.2634 13.0511C18.9103 13.0511 17.8256 14.1471 17.8256 15.489Z" fill="white"/>
<path d="M18.7314 14.6055C18.7314 15.0081 19.0557 15.3324 19.4582 15.3324C19.8608 15.3324 20.1851 15.0081 20.1851 14.6055C20.1851 14.2029 19.8608 13.8786 19.4582 13.8786C19.0557 13.8898 18.7314 14.2141 18.7314 14.6055Z" fill="black"/>
<path d="M19.0892 14.3036C19.0892 14.4155 19.1787 14.5049 19.2905 14.5049C19.4024 14.5049 19.4918 14.4155 19.4918 14.3036C19.4918 14.1918 19.4024 14.1023 19.2905 14.1023C19.1787 14.1023 19.0892 14.1918 19.0892 14.3036Z" fill="white"/>
<path d="M22.9918 18.2624C22.9918 19.6044 24.0877 20.7003 25.4296 20.7003C26.7714 20.7003 27.8673 19.6044 27.8673 18.2624C27.8673 16.9093 26.7714 15.8246 25.4296 15.8246C24.0877 15.8246 22.9918 16.9205 22.9918 18.2624Z" fill="white"/>
<path d="M23.9088 17.379C23.9088 17.7815 24.233 18.1058 24.6356 18.1058C25.0382 18.1058 25.3625 17.7815 25.3625 17.379C25.3625 16.9764 25.0382 16.6521 24.6356 16.6521C24.233 16.6521 23.9088 16.9764 23.9088 17.379Z" fill="black"/>
<path d="M24.2554 17.0659C24.2554 17.1778 24.3449 17.2672 24.4567 17.2672C24.5685 17.2672 24.658 17.1778 24.658 17.0659C24.658 16.9541 24.5685 16.8647 24.4567 16.8647C24.3449 16.8647 24.2554 16.9541 24.2554 17.0659Z" fill="white"/>
<path d="M12.3575 17.6027C12.3575 18.9446 13.4534 20.0405 14.7953 20.0405C16.1371 20.0405 17.233 18.9446 17.233 17.6027C17.233 16.2607 16.1371 15.1648 14.7953 15.1648C13.4422 15.1648 12.3575 16.2607 12.3575 17.6027Z" fill="white"/>
<path d="M13.2745 16.7192C13.2745 17.1217 13.5988 17.446 14.0013 17.446C14.4039 17.446 14.7282 17.1217 14.7282 16.7192C14.7282 16.3166 14.4039 15.9923 14.0013 15.9923C13.5876 16.0035 13.2745 16.3278 13.2745 16.7192Z" fill="black"/>
<path d="M13.6212 16.4173C13.6212 16.5291 13.7106 16.6186 13.8224 16.6186C13.9343 16.6186 14.0237 16.5291 14.0237 16.4173C14.0237 16.3054 13.9343 16.216 13.8224 16.216C13.7106 16.216 13.6212 16.3054 13.6212 16.4173Z" fill="white"/>
<path d="M20.113 23.8897C21.4551 23.7842 22.4577 22.6106 22.3522 21.2684C22.2467 19.9262 21.0732 18.9236 19.7311 19.0291C18.3889 19.1345 17.3864 20.3081 17.4919 21.6503C17.5973 22.9926 18.7708 23.9952 20.113 23.8897Z" fill="white"/>
<path d="M18.4071 20.5772C18.4071 20.9798 18.7314 21.3041 19.1339 21.3041C19.5365 21.3041 19.8608 20.9798 19.8608 20.5772C19.8608 20.1746 19.5365 19.8503 19.1339 19.8503C18.7314 19.8503 18.4071 20.1858 18.4071 20.5772Z" fill="black"/>
<path d="M18.7537 20.2751C18.7537 20.3869 18.8432 20.4764 18.955 20.4764C19.0668 20.4764 19.1563 20.3869 19.1563 20.2751C19.1563 20.1633 19.0668 20.0738 18.955 20.0738C18.8432 20.0738 18.7537 20.1633 18.7537 20.2751Z" fill="white"/>
<path d="M26.5426 26.4035C27.8528 26.0941 28.6642 24.781 28.3548 23.4707C28.0454 22.1604 26.7324 21.349 25.4222 21.6584C24.112 21.9678 23.3006 23.2808 23.61 24.5912C23.9194 25.9015 25.2323 26.7129 26.5426 26.4035Z" fill="white"/>
<path d="M24.4567 23.1604C24.4567 23.563 24.781 23.8873 25.1836 23.8873C25.5861 23.8873 25.9104 23.563 25.9104 23.1604C25.9104 22.7578 25.5861 22.4335 25.1836 22.4335C24.781 22.4335 24.4567 22.7578 24.4567 23.1604Z" fill="black"/>
<path d="M24.8146 22.8472C24.8146 22.959 24.904 23.0485 25.0158 23.0485C25.1277 23.0485 25.2171 22.959 25.2171 22.8472C25.2171 22.7354 25.1277 22.6459 25.0158 22.6459C24.904 22.6459 24.8146 22.7354 24.8146 22.8472Z" fill="white"/>
<path d="M11.2169 23.3282C11.2169 24.6813 12.3128 25.7661 13.6546 25.7661C14.9965 25.7661 16.0924 24.6702 16.0924 23.3282C16.0924 21.9863 14.9965 20.8904 13.6546 20.8904C12.3128 20.8904 11.2169 21.9751 11.2169 23.3282Z" fill="white"/>
<path d="M12.1339 22.4447C12.1339 22.8473 12.4581 23.1716 12.8607 23.1716C13.2633 23.1716 13.5875 22.8473 13.5875 22.4447C13.5875 22.0421 13.2633 21.7178 12.8607 21.7178C12.4581 21.7178 12.1339 22.0421 12.1339 22.4447Z" fill="black"/>
<path d="M12.4805 22.1317C12.4805 22.2435 12.57 22.333 12.6818 22.333C12.7936 22.333 12.8831 22.2435 12.8831 22.1317C12.8831 22.0199 12.7936 21.9304 12.6818 21.9304C12.57 21.9304 12.4805 22.0199 12.4805 22.1317Z" fill="white"/>
<path d="M19.7937 24.8044C24.0095 24.8714 23.7523 26.9738 23.7523 26.9738C23.7523 27.8908 22.7123 28.5171 21.4375 28.6289C20.9679 28.6736 20.3864 28.6848 19.7937 28.696C19.1899 28.696 18.6084 28.6736 18.15 28.6289C16.8864 28.5171 15.8352 27.8908 15.8352 26.9738C15.824 26.9738 15.5669 24.8826 19.7937 24.8044Z" fill="black"/>
<path d="M16.4615 28.0698C17.043 27.1529 18.2842 26.5266 19.7379 26.5266C21.2139 26.5266 22.4775 27.1864 23.0478 28.1258C22.6341 28.4053 22.0638 28.5731 21.4488 28.629C20.9791 28.6737 20.3976 28.6849 19.805 28.6961C19.2011 28.6961 18.6197 28.6737 18.1612 28.629C17.4791 28.5731 16.8864 28.3718 16.4615 28.0698Z" fill="#E86792"/>
<path d="M21.5047 24.9832C21.1133 24.8937 20.6436 24.8378 20.0957 24.8155V26.1462C20.0957 26.1798 20.1181 26.2021 20.1516 26.2021H21.4488C21.4823 26.2021 21.5047 26.1798 21.5047 26.1462V24.9832ZM18.0717 24.9832V26.1462C18.0717 26.1798 18.0941 26.2021 18.1276 26.2021H19.4248C19.4583 26.2021 19.4807 26.1798 19.4807 26.1462V24.8155C18.9327 24.8378 18.4631 24.9049 18.0717 24.9832Z" fill="white"/>
<path d="M20.0804 10.886C22.0566 10.6908 23.7587 11.4973 23.879 12.6842C23.9265 13.1755 23.6579 13.4458 23.0619 13.5004C22.7751 13.5226 22.4293 13.5041 22.0286 13.4836C21.5181 13.4589 20.9313 13.4148 20.3241 13.4745C19.7169 13.5341 19.1503 13.6833 18.656 13.8132C18.2674 13.9086 17.9338 14.006 17.647 14.0283C17.051 14.0828 16.7399 13.8732 16.6923 13.3819C16.5832 12.1899 18.1043 11.0812 20.0804 10.886Z" fill="#BC0055"/>
</svg>
